<?xml version="1.0" standalone="no"?>
<!DOCTYPE svg PUBLIC "-//W3C//DTD SVG 20010904//EN"
 "http://www.w3.org/TR/2001/REC-SVG-20010904/DTD/svg10.dtd">
<svg version="1.0" xmlns="http://www.w3.org/2000/svg"
 width="512.000000pt" height="512.000000pt" viewBox="0 0 512.000000 512.000000"
 preserveAspectRatio="xMidYMid meet">
<metadata>
Created by potrace 1.14, written by Peter Selinger 2001-2017
</metadata>
<g transform="translate(0.000000,512.000000) scale(0.100000,-0.100000)"
fill="#000000" stroke="none">
<path d="M180 2566 l0 -2383 881 0 c673 0 883 3 892 12 17 17 241 273 288 329
13 16 38 44 55 63 18 18 46 51 64 73 17 21 42 50 53 63 26 28 126 141 157 177
25 29 125 143 155 176 11 12 38 44 60 70 22 26 54 62 70 80 17 17 41 45 54 60
50 60 146 170 161 185 36 38 71 81 68 84 -2 1 -23 -7 -48 -18 -25 -11 -47 -21
-50 -22 -3 0 -36 -16 -75 -34 -73 -35 -156 -73 -165 -76 -3 -1 -41 -19 -85
-40 -44 -21 -84 -39 -90 -41 -5 -1 -55 -23 -110 -49 -55 -26 -143 -66 -195
-90 -52 -24 -126 -57 -165 -75 -38 -18 -95 -44 -125 -57 -30 -14 -97 -45 -149
-69 -52 -25 -95 -43 -97 -41 -2 2 30 53 71 115 40 62 75 115 77 119 3 8 68
107 246 377 51 76 92 140 92 142 0 2 16 26 35 53 19 26 35 53 35 59 0 6 4 12
8 14 9 3 103 144 114 171 7 15 2 14 -35 -5 -23 -12 -45 -21 -49 -20 -5 1 -8
-3 -8 -8 0 -6 -4 -10 -8 -10 -4 0 -49 -22 -100 -49 -52 -28 -92 -44 -92 -37 0
22 40 198 66 296 15 52 27 100 29 105 1 6 7 23 13 38 7 16 12 32 12 38 0 5 25
73 56 151 60 153 144 329 212 445 23 39 42 76 42 82 0 6 4 11 8 11 5 0 16 16
25 36 10 19 22 40 27 47 6 7 48 69 94 139 46 70 89 133 95 140 6 7 51 65 99
128 48 63 107 140 131 170 24 30 55 70 69 88 22 28 52 47 38 23 -3 -4 -8 -39
-11 -77 -3 -38 -7 -82 -10 -99 -2 -16 -7 -66 -11 -110 -3 -44 -8 -88 -10 -98
-2 -10 -6 -46 -9 -80 -4 -34 -8 -80 -11 -102 -2 -22 -6 -62 -9 -90 -3 -27 -7
-66 -10 -85 -2 -19 -7 -64 -10 -100 -4 -36 -8 -81 -11 -100 -7 -58 -14 -150
-11 -150 2 0 70 133 152 295 285 562 361 710 375 735 8 14 15 27 15 30 1 9
156 310 159 310 2 0 2 -35 1 -77 -7 -162 -16 -371 -20 -453 -2 -47 -6 -152
-10 -235 -3 -82 -8 -179 -10 -215 -2 -36 -7 -141 -10 -235 -4 -93 -8 -194 -10
-222 l-3 -53 19 24 c10 13 19 26 19 29 0 2 36 68 80 146 44 77 80 143 80 145
0 2 20 39 46 81 25 43 59 103 76 134 17 31 41 74 54 96 13 22 28 49 33 60 5
11 40 75 79 142 39 67 73 131 77 142 3 12 11 21 16 21 5 0 9 4 9 9 0 5 38 76
83 158 86 152 97 171 187 333 29 52 94 164 144 249 50 85 90 158 89 163 -2 4
2 8 7 8 6 0 10 4 10 10 0 5 11 33 23 62 37 82 86 240 101 321 l4 26 -2384 0
-2384 0 0 -2383z m2133 1661 c-18 -88 -35 -171 -38 -186 -3 -14 -12 -60 -20
-101 -23 -113 -47 -233 -51 -255 -6 -34 -64 -319 -68 -337 -2 -10 -3 -18 -1
-18 1 0 19 26 40 57 21 31 42 61 47 67 5 6 53 74 108 151 54 77 104 146 110
153 6 6 8 12 5 12 -3 0 3 8 13 18 9 10 23 27 30 38 6 10 36 52 65 93 28 40 57
80 62 89 6 8 51 72 100 141 50 69 101 143 115 163 13 20 25 36 26 35 2 -2 -10
-55 -51 -237 -1 -8 -22 -94 -45 -190 -23 -96 -44 -186 -46 -200 -3 -14 -12
-53 -20 -88 -9 -35 -17 -68 -18 -75 -19 -99 -33 -134 -79 -204 -89 -135 -185
-295 -233 -388 -25 -49 -50 -94 -54 -100 -17 -23 -115 -248 -155 -355 -42
-113 -99 -290 -109 -340 -3 -14 -17 -73 -31 -132 -13 -59 -27 -127 -30 -150
-3 -24 -11 -67 -18 -96 l-12 -54 -125 -65 c-69 -35 -174 -91 -235 -123 -216
-114 -247 -130 -251 -130 -3 0 56 90 66 100 3 3 14 18 24 35 11 16 23 34 28
40 8 9 88 121 118 165 19 27 179 255 194 275 66 90 183 261 181 263 -1 2 -56
-23 -121 -54 -66 -32 -121 -58 -124 -59 -3 0 -30 -12 -60 -27 -128 -61 -340
-162 -405 -193 -38 -18 -132 -63 -208 -99 -77 -36 -143 -66 -148 -66 -5 0 -9
-5 -9 -12 0 -6 -3 -9 -6 -5 -4 3 -24 -3 -46 -14 -38 -20 -40 -20 -54 -2 -7 10
-14 24 -14 31 0 6 -4 12 -8 12 -4 0 -13 12 -20 28 -6 15 -22 45 -35 67 -37 62
-97 165 -125 215 -14 25 -33 59 -43 75 -10 17 -32 55 -49 85 -17 30 -40 70
-51 89 -16 28 -19 44 -14 80 3 25 8 57 10 71 5 41 45 220 67 300 11 41 23 84
25 95 10 37 96 280 116 325 45 104 103 220 149 299 26 46 48 88 48 92 0 5 5 9
11 9 5 0 8 4 5 9 -4 5 -3 11 1 13 5 1 30 37 57 78 44 68 161 228 176 240 3 3
34 39 68 80 35 41 104 117 155 168 104 104 76 94 277 107 100 6 168 11 290 20
124 9 190 13 300 20 58 4 106 8 107 8 1 1 17 3 36 3 l34 1 -34 -160z"/>
</g>
</svg>
